<svg width="100" height="70" viewBox="0 0 100 70" fill="none" xmlns="http://www.w3.org/2000/svg">
<path d="M95 0H5C2.23854 0 0 2.23854 0 5V65C0 67.7615 2.23854 70 5 70H95C97.7615 70 100 67.7615 100 65V5C100 2.23854 97.7615 0 95 0ZM96.6667 65C96.6667 65.9204 95.9204 66.6667 95 66.6667H5C4.07958 66.6667 3.33333 65.9204 3.33333 65V23.3333H96.6667V65ZM96.6667 20H3.33333V13.3333H96.6667V20ZM96.6667 10H3.33333V5C3.33333 4.07958 4.07958 3.33333 5 3.33333H95C95.9204 3.33333 96.6667 4.07958 96.6667 5V10Z" fill="#222222"/>
<path d="M77.6561 58.3742C77.8977 58.165 78.124 57.9388 78.3332 57.6971C80.7502 60.4646 84.9534 60.7488 87.7211 58.3315C90.4886 55.9144 90.7727 51.7113 88.3555 48.9436C87.0894 47.4942 85.2577 46.6638 83.3332 46.6671C81.4113 46.6733 79.5869 47.5138 78.3332 48.9704C75.9234 46.1867 71.7132 45.8836 68.9294 48.2933C66.1457 50.7031 65.8425 54.9133 68.2523 57.6971C70.6621 60.4808 74.8723 60.784 77.6561 58.3742ZM83.3332 50.0004C85.1742 50.0004 86.6665 51.4927 86.6665 53.3338C86.6665 55.1748 85.1742 56.6671 83.3332 56.6671C81.4921 56.6671 79.9998 55.1748 79.9998 53.3338C79.9998 51.4927 81.4921 50.0004 83.3332 50.0004ZM73.3332 50.0004C75.1742 50.0004 76.6665 51.4927 76.6665 53.3338C76.6665 55.1748 75.1742 56.6671 73.3332 56.6671C71.4921 56.6671 69.9998 55.1748 69.9998 53.3338C69.9998 51.4927 71.4921 50.0004 73.3332 50.0004Z" fill="#222222"/>
<path d="M13.3337 51.6663H33.3337C34.2541 51.6663 35.0003 50.9201 35.0003 49.9997C35.0003 49.0793 34.2541 48.333 33.3337 48.333H13.3337C12.4132 48.333 11.667 49.0793 11.667 49.9997C11.667 50.9201 12.4132 51.6663 13.3337 51.6663Z" fill="#222222"/>
<path d="M13.3337 58.3333H33.3337C34.2541 58.3333 35.0003 57.5871 35.0003 56.6667C35.0003 55.7462 34.2541 55 33.3337 55H13.3337C12.4132 55 11.667 55.7462 11.667 56.6667C11.667 57.5871 12.4132 58.3333 13.3337 58.3333Z" fill="#222222"/>
</svg>
