<svg width="26" height="26" viewBox="0 0 26 26" fill="none" xmlns="http://www.w3.org/2000/svg">
<path d="M24.9824 23.9424L18.6073 17.5673C20.2998 15.6011 21.1643 13.0554 21.0191 10.4651C20.8739 7.87483 19.7304 5.44168 17.8287 3.67696C15.9271 1.91223 13.4154 0.953328 10.8215 1.00175C8.22763 1.05017 5.7535 2.10214 3.91903 3.93661C2.08457 5.77108 1.03259 8.24521 0.98417 10.8391C0.93575 13.433 1.89466 15.9446 3.65938 17.8463C5.42411 19.7479 7.85725 20.8915 10.4475 21.0367C13.0378 21.1819 15.5835 20.3174 17.5497 18.6249L23.9248 25L24.9824 23.9424ZM2.50303 11.0376C2.50303 9.35286 3.00262 7.70592 3.93863 6.30508C4.87464 4.90425 6.20502 3.81243 7.76155 3.1677C9.31807 2.52296 11.0308 2.35427 12.6832 2.68295C14.3356 3.01163 15.8535 3.82293 17.0448 5.01424C18.2361 6.20555 19.0474 7.72338 19.3761 9.37578C19.7047 11.0282 19.536 12.7409 18.8913 14.2975C18.2466 15.854 17.1548 17.1844 15.7539 18.1204C14.3531 19.0564 12.7062 19.556 11.0214 19.556C8.76271 19.5542 6.59706 18.6562 4.99994 17.0591C3.40282 15.4619 2.50479 13.2963 2.50303 11.0376Z" fill="#222222" stroke="#222222" stroke-width="0.5"/>
</svg>
